<svg xmlns="http://www.w3.org/2000/svg" xmlns:xlink="http://www.w3.org/1999/xlink" width="500" zoomAndPan="magnify" viewBox="0 0 375 374.999991" height="500" preserveAspectRatio="xMidYMid meet" version="1.2"><defs/><g id="55df5899c9"><g style="fill:#00bf63;fill-opacity:1;"><g transform="translate(13.769535, 274.816978)"><path style="stroke:none" d="M 134.9375 -140.828125 C 125.71875 -140.828125 116.710938 -138.347656 107.921875 -133.390625 C 99.128906 -128.441406 91.445312 -121.867188 84.875 -113.671875 C 78.300781 -105.484375 73.90625 -96.441406 71.6875 -86.546875 C 69.46875 -76.816406 69.679688 -67.8125 72.328125 -59.53125 C 74.972656 -51.25 79.582031 -44.632812 86.15625 -39.6875 C 92.726562 -34.738281 100.625 -32.265625 109.84375 -32.265625 C 115.476562 -32.265625 121.582031 -33.070312 128.15625 -34.6875 C 134.726562 -36.3125 141.210938 -39.425781 147.609375 -44.03125 C 154.015625 -48.644531 159.863281 -55.304688 165.15625 -64.015625 L 120.859375 -64.015625 L 127.515625 -92.9375 L 213.28125 -92.9375 L 211.75 -87.0625 C 209.019531 -74.769531 204.113281 -63.203125 197.03125 -52.359375 C 189.945312 -41.523438 181.367188 -31.96875 171.296875 -23.6875 C 161.222656 -15.40625 150.210938 -8.957031 138.265625 -4.34375 C 126.316406 0.257812 114.195312 2.5625 101.90625 2.5625 C 89.613281 2.5625 78.601562 0.21875 68.875 -4.46875 C 59.144531 -9.164062 51.078125 -15.613281 44.671875 -23.8125 C 38.273438 -32.007812 34.007812 -41.523438 31.875 -52.359375 C 29.738281 -63.203125 30.039062 -74.769531 32.78125 -87.0625 C 35.675781 -99.34375 40.707031 -110.90625 47.875 -121.75 C 55.050781 -132.59375 63.71875 -142.109375 73.875 -150.296875 C 84.03125 -158.492188 95.035156 -164.9375 106.890625 -169.625 C 118.753906 -174.320312 130.832031 -176.671875 143.125 -176.671875 C 155.925781 -176.671875 167.445312 -174.066406 177.6875 -168.859375 C 187.9375 -163.648438 196.257812 -156.476562 202.65625 -147.34375 C 209.0625 -138.21875 212.863281 -127.597656 214.0625 -115.484375 L 171.8125 -115.484375 C 169.757812 -124.691406 165.191406 -131.21875 158.109375 -135.0625 C 151.023438 -138.90625 143.300781 -140.828125 134.9375 -140.828125 Z M 134.9375 -140.828125 "/></g></g><g style="fill:#00bf63;fill-opacity:1;"><g transform="translate(214.506512, 274.816978)"><path style="stroke:none" d="M 79.625 -26.625 C 86.457031 -26.625 92.09375 -28.070312 96.53125 -30.96875 C 100.96875 -33.875 104.46875 -37.585938 107.03125 -42.109375 C 109.59375 -46.640625 111.46875 -51.296875 112.65625 -56.078125 C 113.6875 -60.859375 113.941406 -65.46875 113.421875 -69.90625 C 112.910156 -74.34375 111.078125 -78.007812 107.921875 -80.90625 C 104.765625 -83.8125 99.859375 -85.265625 93.203125 -85.265625 C 86.367188 -85.265625 80.734375 -83.8125 76.296875 -80.90625 C 71.859375 -78.007812 68.316406 -74.34375 65.671875 -69.90625 C 63.023438 -65.46875 61.191406 -60.859375 60.171875 -56.078125 C 58.972656 -51.296875 58.628906 -46.640625 59.140625 -42.109375 C 59.660156 -37.585938 61.5 -33.875 64.65625 -30.96875 C 67.8125 -28.070312 72.800781 -26.625 79.625 -26.625 Z M 100.109375 -115.21875 C 111.722656 -115.21875 121.835938 -112.742188 130.453125 -107.796875 C 139.078125 -102.847656 145.304688 -95.976562 149.140625 -87.1875 C 152.984375 -78.394531 153.539062 -68.109375 150.8125 -56.328125 C 148.082031 -44.378906 142.832031 -34.007812 135.0625 -25.21875 C 127.300781 -16.425781 118 -9.640625 107.15625 -4.859375 C 96.3125 -0.0859375 84.914062 2.296875 72.96875 2.296875 C 60.851562 2.296875 50.484375 -0.0859375 41.859375 -4.859375 C 33.242188 -9.640625 27.097656 -16.425781 23.421875 -25.21875 C 19.753906 -34.007812 19.285156 -44.378906 22.015625 -56.328125 C 24.742188 -68.109375 30.035156 -78.394531 37.890625 -87.1875 C 45.742188 -95.976562 55.132812 -102.847656 66.0625 -107.796875 C 76.988281 -112.742188 88.335938 -115.21875 100.109375 -115.21875 Z M 100.109375 -115.21875 "/></g></g></g></svg>